ply
            format ascii 1.0
            element vertex 449
            property float x
            property float y
            property float z
            property uchar blue
            property uchar green
            property uchar red
            end_header
            0.000000 0.000000 0.000000 0 0 0
97.021627 0.445863 -233.177979 98 118 126
105.765792 24.493545 -266.909235 48 44 45
95.546496 16.916489 -257.926783 71 64 60
93.960330 15.129340 -255.943552 217 214 221
85.787302 11.353634 -251.166380 176 169 173
79.573554 14.306619 -252.415112 140 142 143
104.483939 16.325045 -237.415293 249 255 255
107.082651 12.633004 -228.809001 79 78 73
65.291615 -52.476458 -170.836296 86 92 99
101.713248 -24.651079 -204.063988 150 155 151
133.093427 22.036931 -263.832903 97 102 108
143.689090 29.650260 -310.093419 255 255 255
136.345372 43.815433 -329.334562 164 145 124
141.405813 52.662526 -329.960875 102 100 106
132.659279 60.550346 -276.269324 169 165 163
116.884570 -18.230739 -222.263265 127 130 128
135.111531 -3.357869 -220.059929 165 165 165
137.135153 -18.027650 -270.767555 249 255 255
179.211473 -41.213384 -302.086154 164 163 174
204.273286 -23.229560 -335.337922 244 255 255
168.888325 -9.239085 -336.743132 255 255 255
330.282025 75.039304 -449.758700 179 182 179
335.624770 78.159335 -456.202649 179 182 179
131.414131 52.184236 -325.543013 60 59 61
130.961790 48.574893 -314.049116 74 74 77
137.273747 53.265137 -316.508553 200 189 181
140.918377 62.864389 -322.449549 102 103 103
133.359632 27.612122 -266.004427 255 255 255
125.940067 -2.088123 -228.958412 255 255 255
126.105292 -4.896573 -230.793581 255 255 255
125.330316 -18.151792 -243.367408 198 163 145
125.330316 -18.151792 -243.367408 198 163 145
126.030006 -17.130177 -242.647565 255 255 255
132.203697 -17.269215 -242.065395 191 188 189
133.318949 -18.555647 -245.561644 113 113 109
134.785870 -18.022606 -244.325001 50 51 51
118.328660 -7.935274 -227.263701 146 137 128
138.912865 -18.935990 -249.221262 175 174 175
137.160736 1.660374 -210.580192 255 255 255
136.067706 -0.320747 -213.424863 255 255 255
141.284579 -10.938745 -249.977304 170 169 168
130.134163 -8.640352 -243.055461 255 255 255
126.007776 -16.929768 -234.247954 204 221 190
127.483448 -15.329681 -235.652455 253 253 253
127.776499 -15.756440 -235.249520 184 203 226
128.009479 -15.915308 -235.106310 118 107 115
128.273552 -15.626653 -235.572956 255 255 255
89.000781 119.641721 -158.009137 189 190 190
98.227219 110.696641 -159.795535 253 255 255
75.526257 101.152436 -154.713631 193 190 189
115.880661 -45.753219 -269.358348 212 209 224
93.018633 90.036018 -156.141099 248 255 255
84.452670 91.037362 -156.824727 163 159 161
65.897452 100.854978 -152.090126 95 96 94
88.688606 82.098203 -155.971662 147 146 149
73.037220 94.027203 -148.553925 61 62 61
86.374729 81.958474 -151.244037 151 151 151
86.995810 80.454055 -148.119749 255 255 255
58.256021 87.334332 -149.353230 189 192 192
64.292227 91.513649 -135.757793 168 170 175
120.586541 -17.897300 -246.883019 222 220 207
119.817231 1.905285 -211.805204 188 199 217
119.817231 1.905285 -211.805204 188 199 217
161.897284 -43.626630 -286.724288 173 168 171
130.828979 -5.495881 -256.323152 232 255 255
164.440738 109.616006 -325.544328 255 255 255
160.705892 109.731396 -321.230754 195 184 172
195.089157 129.034766 -336.801039 182 175 183
175.538475 120.417036 -327.656749 195 182 188
160.323704 111.762668 -320.068831 152 150 147
176.832119 123.318214 -324.276730 194 183 190
119.739064 1.574877 -239.069689 130 123 126
117.630600 0.123618 -238.418226 131 131 128
103.663999 9.845221 -224.723209 178 163 190
111.256411 -11.891673 -230.266590 255 249 244
140.534624 5.434954 -288.462899 159 148 135
58.929218 -98.402633 -333.935837 15 14 14
52.914365 -226.030041 -440.386339 88 94 91
52.914365 -226.030041 -440.386339 88 94 91
93.042871 -48.810302 -285.673969 29 25 26
88.428853 -166.944338 -406.374663 111 109 108
108.522178 -153.315744 -398.334387 83 82 85
115.865434 -82.897685 -324.629063 135 131 130
130.099333 -11.498999 -228.315720 89 76 81
167.694564 -194.084593 -432.517754 136 136 138
126.250187 -47.971940 -285.853087 197 199 202
126.408977 -20.453308 -236.154717 112 118 127
124.669851 1.118641 -174.782952 255 255 255
92.253092 23.813297 -171.790022 255 255 255
17.347107 17.776372 -130.790187 151 152 150
12.198513 19.140213 -126.879197 151 152 150
100.530790 -26.192699 -176.018588 68 71 67
96.195257 -27.062495 -171.101335 68 71 67
92.120910 -26.878461 -169.241739 70 74 80
58.495918 -128.174983 -127.161778 114 122 118
22.987938 -123.098880 -146.781850 255 255 255
181.021414 -63.826466 -305.439934 109 97 107
195.774252 -31.004554 -313.493014 18 18 18
201.496387 -32.504832 -313.450168 19 19 19
194.506455 -26.410350 -309.481521 18 20 21
205.771648 -35.491583 -312.459451 23 22 23
197.817477 -27.250190 -306.858182 69 69 66
206.752260 -35.103542 -308.874988 72 74 75
218.816244 -42.445658 -311.128953 250 255 255
214.296547 -36.403141 -302.259376 124 123 124
214.296547 -36.403141 -302.259376 124 123 124
203.454748 -27.960342 -300.301367 73 77 74
199.116113 -24.181080 -297.790093 29 29 29
194.439551 -14.380583 -287.430704 36 34 35
148.802842 21.627263 -185.652266 84 73 65
148.802842 21.627263 -185.652266 84 73 65
148.166514 23.543689 -185.565328 33 37 39
147.233656 22.983721 -183.172415 122 134 140
147.233656 22.983721 -183.172415 122 134 140
142.377375 22.067974 -167.438654 40 40 44
145.203380 5.752090 -166.848269 138 134 136
146.029602 -0.236692 -167.162198 122 125 128
136.852612 -11.041377 -159.710425 73 72 70
124.974696 29.264113 -140.819836 88 83 87
113.684574 29.899037 -124.623311 118 118 118
80.182213 43.507429 -91.137450 87 79 79
75.252162 34.911060 -96.730237 77 73 70
80.315218 20.492894 -119.208683 66 65 70
83.345315 4.326228 -158.052405 127 128 131
60.337910 -8.601847 -190.141961 90 90 90
59.796717 -31.178883 -213.159172 106 100 104
241.909680 -6.512492 -66.991806 78 75 75
120.185270 28.997046 -289.245523 94 103 102
199.326036 -13.901830 -308.681230 144 146 146
380.914814 -119.629285 -488.482537 157 161 158
159.978508 9.828131 -299.767426 43 38 37
220.264940 9.232969 -339.797306 255 255 255
418.805533 -28.293027 -464.489328 172 168 161
418.805533 -28.293027 -464.489328 172 168 161
237.721568 0.679500 -334.441483 172 168 161
444.622761 -124.212522 -453.910170 84 84 85
399.095892 -51.729449 -425.440110 255 255 255
406.392461 -45.247028 -423.883050 144 146 146
37.175483 16.927677 -297.049993 82 83 82
45.872238 -7.867015 -311.082888 48 52 55
69.037338 0.958341 -346.155971 138 140 137
67.346588 -7.980845 -354.469009 143 149 144
79.276348 -0.817873 -356.566839 132 129 129
87.454261 -14.651325 -367.582186 163 163 167
87.454261 -14.651325 -367.582186 163 163 167
107.583753 -20.900804 -378.531210 44 46 50
117.105319 -32.776941 -383.720773 119 119 118
131.636925 -22.767311 -377.778073 47 47 48
142.991139 -26.132559 -375.472591 112 117 119
158.093341 -23.324910 -363.535183 125 128 125
157.423771 -37.437259 -360.662689 153 154 152
157.423771 -37.437259 -360.662689 153 154 152
168.535734 -18.256898 -352.236786 139 136 136
170.033353 -6.583346 -347.058744 135 134 138
160.617842 -54.598179 -337.417245 100 92 95
171.416874 -10.750267 -341.046638 64 61 68
171.416874 -10.750267 -341.046638 64 61 68
174.425743 -7.432041 -337.617426 176 179 171
173.829800 -14.233039 -336.904117 200 202 204
186.784547 -35.840235 -328.016169 255 255 255
182.606995 18.393794 -304.808391 255 255 255
190.937848 29.637342 -305.647086 73 62 63
174.544372 -17.149261 -297.062736 151 151 164
174.544372 -17.149261 -297.062736 151 151 164
81.638804 30.711109 -207.999460 76 81 89
81.638804 30.711109 -207.999460 76 81 89
56.725917 20.248951 -210.750923 17 14 15
53.690973 18.125172 -213.294646 20 22 22
165.057267 22.333789 -183.042073 41 36 36
150.181289 -36.573115 -170.495976 73 73 70
87.751185 4.604414 -236.137313 73 73 70
88.233761 3.211783 -218.329851 51 45 45
90.272556 2.120539 -239.687446 16 12 13
90.272556 2.120539 -239.687446 16 12 13
120.685714 -47.800767 -276.790085 81 81 78
139.992915 -59.562371 -271.864277 87 82 93
208.756610 24.273347 -164.847005 210 218 229
326.559577 55.234264 -72.933455 58 58 59
305.206755 41.133155 -82.212657 252 255 255
344.529341 67.886143 -59.233715 100 94 96
137.913514 9.080273 -223.713366 76 74 73
136.663439 11.264308 -224.740614 70 63 65
128.239636 19.549259 -233.937599 177 180 183
123.684514 21.874182 -238.510390 222 214 217
123.684514 21.874182 -238.510390 222 214 217
134.718372 15.870667 -223.735973 137 135 137
104.046353 23.864069 -257.609913 215 212 207
123.535718 21.941801 -238.495835 55 55 53
97.872988 22.810244 -263.276381 206 214 219
135.215517 16.890337 -220.636547 17 20 18
118.835629 22.581877 -244.191676 40 39 39
133.693829 -5.367419 -174.520895 101 104 103
133.686977 -5.093341 -174.701989 101 104 103
131.183821 -3.307257 -167.294142 75 74 75
142.245705 22.405304 -163.547442 31 33 35
95.001032 209.377239 76.595986 27 27 29
135.978111 -21.660000 -293.084411 83 91 87
120.793360 24.051626 -235.060936 52 48 48
123.457440 19.592669 -241.590397 124 117 114
124.825645 19.119134 -242.021776 62 60 60
115.624605 29.087140 -229.080657 149 151 151
125.814232 18.136229 -242.533230 192 195 192
119.969658 25.452706 -235.178825 76 82 85
119.853155 22.416394 -235.232495 136 138 138
119.053595 25.158023 -234.437865 45 40 37
129.512837 14.337247 -246.307172 135 135 137
119.544536 25.438366 -235.418986 88 85 85
122.389901 20.907944 -238.307887 142 144 145
120.491013 23.430556 -237.016024 32 32 32
123.612350 19.772678 -239.374977 128 128 125
155.792886 -5.648417 -194.623936 34 37 43
153.303365 -0.959516 -197.246535 73 77 82
134.513132 -3.985191 -204.413297 10 10 11
144.876847 2.340303 -201.473078 59 62 63
145.451833 3.365300 -202.076777 42 40 38
147.182599 4.985770 -202.283958 131 118 127
147.182599 4.985770 -202.283958 131 118 127
147.161197 8.003432 -204.832185 208 218 227
147.161197 8.003432 -204.832185 208 218 227
145.602123 7.053806 -203.988811 171 185 180
134.305579 3.118126 -205.805928 30 30 28
141.530592 12.506166 -210.356210 51 50 49
138.980505 10.838860 -208.727788 64 64 64
129.247371 9.234134 -208.494098 17 17 20
129.247371 9.234134 -208.494098 17 17 20
116.982110 45.696417 -206.185060 96 99 93
105.977776 10.135215 -248.288545 37 34 32
103.239022 10.917352 -253.023488 121 115 111
98.078920 6.921713 -256.130462 69 60 63
90.053949 5.063308 -268.004220 69 60 63
96.382039 18.383796 -252.999472 111 130 121
96.382039 18.383796 -252.999472 111 130 121
115.047425 29.992507 -258.482966 83 82 80
181.256768 -308.219180 57.120487 57 64 59
206.829005 -293.229826 63.941473 52 55 58
349.069491 55.590537 30.823501 94 102 109
321.091758 119.220144 142.915659 254 255 255
321.091758 119.220144 142.915659 254 255 255
327.229994 122.596013 83.197149 70 65 65
331.060771 125.206313 72.138836 149 142 136
121.762763 105.680386 -155.758788 120 114 118
114.555420 120.197474 -144.494610 120 114 118
137.364366 43.480272 -249.713427 251 255 255
91.385511 159.375240 -365.836563 26 24 26
90.366183 151.557035 -368.295173 41 37 33
103.137688 120.938030 -362.368308 102 108 99
113.768127 72.275966 -349.091213 62 57 55
146.160524 42.801718 -234.228009 70 66 67
155.212646 51.013031 -205.679380 55 55 53
198.687304 80.076283 -116.685995 255 255 255
125.045657 82.657421 -154.979836 87 82 80
122.541744 62.467616 -181.016181 147 150 142
132.618053 110.849223 -182.515967 32 32 37
140.100908 130.516440 -173.730960 120 123 128
109.418089 19.167391 -269.248565 186 178 172
128.145265 27.807882 -242.070517 243 249 251
129.819428 36.611847 -233.169942 132 137 134
127.115524 25.240750 -246.790725 52 52 56
120.248232 11.104056 -256.891583 186 178 172
120.248232 11.104056 -256.891583 186 178 172
154.422934 -65.361187 -189.886015 223 255 221
154.422934 -65.361187 -189.886015 223 255 221
157.230461 -65.151715 -188.329251 243 255 230
155.499832 -64.282696 -187.747522 255 255 255
159.164017 -64.516888 -186.968221 60 56 58
116.470364 -42.790913 -197.347027 124 122 123
125.205756 -48.188601 -190.631224 45 40 46
135.518319 -47.693760 -185.045427 113 113 109
170.543795 -71.598788 -164.718253 64 62 66
134.700854 -44.987176 -185.392370 123 124 123
137.174675 -41.492811 -184.539261 33 34 36
151.235222 -41.370525 -168.098381 92 94 94
148.899751 -35.278832 -171.659250 95 97 97
168.651175 -37.301717 -165.878942 119 121 119
146.617200 -29.314772 -175.206060 27 27 27
151.944298 -23.585361 -174.181788 88 90 88
145.899610 -16.751067 -183.917961 28 26 32
140.841787 -13.147410 -188.076796 72 83 73
4.472031 -115.076762 -604.510324 114 121 115
4.472031 -115.076762 -604.510324 114 121 115
145.045899 24.957505 -216.405595 102 102 107
149.008376 28.448118 -214.748337 34 31 40
165.477088 29.872040 -210.908496 207 213 222
159.027118 31.271230 -211.308178 43 43 43
159.658527 29.481267 -213.981687 45 43 51
150.761791 30.712210 -215.756680 155 159 157
149.768141 33.622129 -214.462496 55 58 58
155.649115 34.225078 -213.913357 140 143 149
155.649115 34.225078 -213.913357 140 143 149
154.497198 32.434389 -215.374773 140 143 149
154.497198 32.434389 -215.374773 140 143 149
154.497198 32.434389 -215.374773 140 143 149
153.956345 34.908161 -214.185170 144 133 125
143.938379 32.960525 -217.357774 24 25 23
84.255102 -68.871051 -299.594140 45 43 51
142.242056 53.224072 -209.667509 65 67 64
129.471157 -19.174450 -238.364033 58 50 54
131.712255 -21.452424 -238.673876 48 47 48
132.880246 -22.653482 -236.831451 199 200 199
127.934743 -15.851759 -236.731455 93 95 95
128.200265 -16.336495 -236.365989 44 47 42
137.454735 -26.009363 -231.057893 255 254 232
128.855330 -15.967405 -234.881707 20 19 21
134.052965 -21.940274 -231.928041 63 57 50
136.305026 -24.266225 -230.594617 57 55 59
132.169602 -19.005405 -232.542883 55 47 49
150.087786 -17.490549 -217.048644 57 54 55
128.888403 -21.538310 -246.147915 255 254 232
120.722503 -26.571481 -239.977888 48 51 49
116.188638 -31.510204 -234.103769 36 36 33
116.625970 -31.642608 -233.755342 32 32 34
124.172356 -22.419390 -243.733242 96 98 96
122.864379 -24.772148 -241.373937 51 47 45
121.188769 -26.824105 -238.946744 86 88 86
120.084146 -28.656478 -235.858792 96 98 98
120.084146 -28.656478 -235.858792 96 98 98
116.839895 -30.834356 -231.987558 75 79 77
117.876392 -30.736041 -232.425811 56 56 54
90.739184 -38.467145 -206.964108 70 70 70
124.369164 -23.339191 -242.185860 158 162 162
112.184616 -33.848459 -222.689302 23 26 24
108.099178 -33.587157 -218.838944 31 28 34
124.480116 -23.433705 -241.876439 90 87 86
117.132974 -32.151216 -226.429240 79 70 62
116.599845 -33.541887 -220.202150 91 73 73
111.759876 -32.797544 -216.218927 73 66 58
106.323972 -35.450361 -206.803698 85 87 87
125.554896 -24.226086 -241.099280 52 46 46
120.513915 -32.544088 -224.214840 51 51 61
120.513915 -32.544088 -224.214840 51 51 61
116.711898 -33.243241 -215.825524 112 112 114
109.792826 -28.674157 -209.009753 104 107 101
124.179687 -18.738875 -247.824323 80 78 75
125.091744 -20.218866 -245.314621 214 221 225
123.268120 -18.088372 -249.498564 189 255 202
118.182517 -6.422784 -405.062956 146 148 139
125.885571 -20.795121 -243.763978 211 249 255
90.308030 3.070099 -347.142550 106 110 111
126.218640 -20.859879 -243.253496 211 249 255
136.586951 -16.085057 -239.139457 38 38 36
132.512071 -17.185302 -241.429626 255 235 217
115.922831 -38.386658 -218.357621 128 125 125
120.194826 -42.189521 -217.097924 200 199 202
128.316202 -42.757118 -205.297600 209 213 216
133.990098 -48.726545 -201.575343 37 33 31
145.295269 -48.109054 -191.005559 223 230 227
142.497813 -30.537211 -205.438736 92 89 92
149.389324 -32.681958 -202.402196 55 47 51
150.389551 -32.689701 -203.231607 130 120 115
170.833886 95.013594 -338.613824 203 201 206
172.298993 97.359807 -340.867624 203 201 206
177.839848 92.970603 -348.580089 254 255 255
187.888939 52.523130 -380.666153 228 231 230
161.581477 92.668961 -370.816922 197 198 198
188.631454 54.188067 -390.037399 208 207 207
186.823301 43.699655 -387.252747 202 206 207
191.193331 23.356652 -383.353592 217 211 210
133.083845 214.177395 -558.365186 132 125 119
215.064609 -70.571361 -93.462763 222 237 203
217.173750 -65.625797 -101.704409 180 191 198
57.294442 -8.702568 -222.878166 181 180 180
59.970252 -26.111931 -220.298635 210 223 204
57.098464 -14.580980 -218.323537 158 167 176
70.734228 -0.997292 -230.084569 255 255 255
70.905046 -5.827600 -228.464158 92 94 119
71.196491 -4.545404 -228.935841 95 88 106
72.384015 -1.517938 -230.378096 95 80 83
72.384015 -1.517938 -230.378096 95 80 83
77.501321 -30.308310 -226.778728 174 176 179
68.203216 -5.385208 -224.694014 255 255 255
68.203216 -5.385208 -224.694014 255 255 255
73.917429 -0.515265 -230.761678 255 255 255
67.911982 -4.369291 -222.943973 70 77 84
67.911982 -4.369291 -222.943973 70 77 84
69.151056 -15.008833 -219.517551 154 138 114
67.756884 -13.888930 -218.007915 248 247 250
66.472230 -6.664263 -218.336546 154 142 155
74.002534 -8.065752 -222.030052 245 248 249
70.806796 -7.434182 -218.180878 230 245 255
81.650774 -34.905896 -220.515906 100 90 102
82.000748 -34.157758 -219.467877 156 154 155
74.620502 -6.193610 -217.573493 201 202 201
81.742667 -35.900741 -213.974112 160 158 160
72.422346 -3.958679 -214.246309 186 162 173
101.622873 6.906727 -259.774313 73 60 72
74.406061 -10.096937 -210.908201 252 255 255
79.866806 -38.172991 -203.207709 63 58 65
81.248846 -41.917083 -201.438686 187 184 187
81.028752 -24.735438 -191.989984 64 70 78
-51.881736 30.447783 -366.212632 83 87 89
-12.423066 -23.349004 -327.392778 53 47 41
-15.552346 -8.760939 -326.097249 56 64 60
-15.552346 -8.760939 -326.097249 56 64 60
-7.737881 -19.068313 -320.878422 87 85 87
-4.252148 -15.584497 -308.340156 64 64 59
72.260576 -7.909726 -230.867970 78 81 81
74.769882 -10.351059 -232.018673 255 255 255
73.865131 -8.013215 -230.988316 162 162 160
70.398842 -16.704698 -226.380841 212 216 211
97.450134 -2.270653 -252.804142 151 151 149
86.755473 -12.825467 -239.233276 255 255 255
72.423828 -5.539813 -223.397189 84 80 93
72.423828 -5.539813 -223.397189 84 80 93
72.235609 -4.181162 -223.206084 107 88 90
73.106852 -5.505377 -223.313646 170 165 164
74.146025 -15.020327 -221.122691 57 64 68
73.942337 -8.050628 -221.553302 80 77 94
73.797869 -3.796122 -221.911936 88 79 72
74.708212 -16.791494 -220.677341 251 245 235
74.801173 -15.736038 -218.759286 241 253 255
75.056546 -18.104287 -217.109666 227 237 243
79.653712 -28.842660 -222.637576 136 137 140
76.103567 -7.922244 -218.737514 128 122 143
76.256693 -5.737690 -219.075472 117 116 126
79.117733 -32.350369 -218.855961 62 58 58
76.385013 -19.477369 -215.484414 255 255 255
75.839739 -18.147662 -214.590102 228 254 255
109.115746 -11.477111 -267.795352 161 161 154
76.979635 -6.729897 -216.919616 255 255 255
78.414580 -1.713581 -218.650503 255 255 255
78.793963 -5.240214 -216.924932 186 186 187
81.893037 -0.945609 -216.595716 179 164 169
82.568517 -4.857131 -214.211504 210 212 216
82.762835 -33.061094 -201.764630 181 181 190
83.982037 -28.145163 -206.096302 193 190 218
83.885670 -6.035591 -213.249748 166 158 158
83.951156 -3.916664 -214.066860 85 88 96
84.664274 -6.911577 -212.410174 218 218 220
85.223253 -5.168526 -213.050578 204 205 208
85.301812 -2.236891 -214.288573 175 177 180
86.291990 -20.234640 -204.043253 237 240 241
86.845535 -20.544878 -204.840754 223 236 232
89.598945 -6.585166 -215.298707 205 203 201
90.841018 -19.020106 -204.547809 187 186 189
91.737514 -18.550679 -205.976265 176 176 175
95.021712 -15.645535 -205.957895 76 70 73
102.146764 -15.343611 -206.862397 71 67 67
106.397473 -26.120391 -202.937746 208 209 213
104.692644 -10.273718 -210.414142 60 62 63
107.090847 -16.482169 -207.801739 149 151 151
116.941064 -30.050151 -207.789726 64 66 63
114.555749 -17.635109 -213.109645 54 52 52
113.752133 -12.339238 -214.282970 73 62 64
113.752133 -12.339238 -214.282970 73 62 64
118.262389 -19.558236 -215.234889 191 195 188
116.156367 -10.830033 -219.976149 236 240 241
121.024293 -22.606283 -219.806726 135 134 150
122.132714 -14.258685 -220.783703 67 64 66
